<?xml version="1.0" encoding="UTF-8"?>
<svg width="190" height="190" xmlns="http://www.w3.org/2000/svg" xmlns:svg="http://www.w3.org/2000/svg">
 <title>Circle Check Red</title>
 <metadata id="metadata7">image/svg+xml</metadata>
 <g>
  <title>Layer 1</title>
  <g display="inline" id="layer1">
   <g display="inline" id="svg_2">
    <text y="96.697051" x="-35.24916" xml:space="preserve" font-family="Kochi Gothic" stroke-width="1px" fill="#ff0000" font-weight="normal" font-style="normal" font-size="40px" transform="matrix(1.03529,0,0,1.01137,-0.352941,-2.08749) " id="svg_3"/>
    <path d="m93.96037,14.97708c-47.38244,0 -85.96035,37.68659 -85.96037,83.97422c0,46.28765 38.57793,83.97421 85.96037,83.97421c47.38237,0 85.96036,-37.68656 85.96036,-83.97421c0,-20.01111 -6.93169,-37.90671 -18.70259,-52.56677l-8.09374,9.37124c10.26169,12.34305 14.2782,26.0467 14.2782,43.19553c0,39.66694 -32.83711,71.7264 -73.44223,71.7264c-40.60517,-0.00003 -73.44225,-32.05946 -73.44225,-71.7264c0,-39.66693 32.8371,-71.74533 73.44225,-71.74533c12.8668,0 22.49047,1.80688 32.99674,7.47519l7.68966,-9.86481c-12.30118,-6.63672 -25.67202,-9.83927 -40.6864,-9.83927z" stroke-dashoffset="0" stroke-miterlimit="4" stroke-linejoin="round" stroke-width="20.200001" fill-rule="evenodd" fill="#ff0000" id="svg_4"/>
    <path d="m62.14523,87.90709c3.46626,0.0001 6.08824,2.77853 7.86591,8.33536c3.55512,10.41925 6.08819,15.62883 7.59924,15.62877c1.15535,0.00006 2.35526,-0.86818 3.59968,-2.60479c24.9752,-39.07187 48.08405,-70.67672 69.32655,-94.81466c5.51036,-6.25133 14.26506,-9.37709 26.26408,-9.37726c2.84402,0.00017 4.75493,0.26064 5.73279,0.78143c0.97751,0.52113 1.46631,1.17233 1.46652,1.95362c-0.00021,1.21573 -1.46672,3.60347 -4.39958,7.16319c-34.30789,40.28765 -66.12699,82.83266 -95.45734,127.63508c-2.04433,3.12578 -6.22168,4.68868 -12.53212,4.68865c-6.3994,0.00003 -10.17683,-0.26047 -11.33221,-0.78148c-3.02197,-1.30235 -6.57717,-7.94456 -10.66562,-19.92666c-4.62181,-13.28443 -6.93271,-21.61976 -6.93266,-25.00606c-0.00005,-3.64664 3.11076,-7.16311 9.33242,-10.54944c3.8218,-2.08376 7.19925,-3.12565 10.13234,-3.12575" stroke-width="1px" fill="#ff0000" id="svg_5"/>
   </g>
  </g>
 </g>
</svg>